<?xml version="1.0" encoding="UTF-8"?>
<svg width="20px" height="20px" viewBox="0 0 20 20" version="1.1" xmlns="http://www.w3.org/2000/svg" xmlns:xlink="http://www.w3.org/1999/xlink">
    <title>BF855ED6-51AE-42D6-BF0C-BC0EBD1AB416</title>
    <defs>
        <circle id="path-1" cx="10" cy="10" r="10"></circle>
    </defs>
    <g id="iOS-App" stroke="none" stroke-width="1" fill="none" fill-rule="evenodd">
        <g id="ap09-Home" transform="translate(-40.000000, -156.000000)">
            <g id="Group" transform="translate(16.000000, 124.000000)">
                <g id="Group-2-Copy" transform="translate(24.000000, 32.000000)">
                    <mask id="mask-2" fill="white">
                        <use xlink:href="#path-1"></use>
                    </mask>
                    <use id="Oval" fill="#1F2BFF" xlink:href="#path-1"></use>
                    <polygon id="Rectangle" fill="#7D27FF" mask="url(#mask-2)" points="10.5893819 10.0364721 20.1348364 0.0364721485 20.1348364 20.0364721 0.134836428 20.0364721"></polygon>
                    <path d="M10.2970528,16.0941645 C11.2710428,16.0941645 12.1033097,15.9519922 12.7938534,15.6676476 C13.4843972,15.383303 14.0141945,14.9740774 14.3832454,14.4399706 C14.7522963,13.9058639 14.9387241,13.2660886 14.9425287,12.5206447 C14.9387241,12.0480179 14.8588265,11.6215011 14.7028359,11.2410941 C14.5468453,10.8606872 14.3176152,10.5244689 14.0151456,10.2324394 C13.7126761,9.94040979 13.3398205,9.68872641 12.896579,9.47738922 C12.4533374,9.26605204 11.9425633,9.09698229 11.3642567,8.97017997 L10.3598295,8.73963031 C10.0935041,8.6819929 9.85381125,8.61474925 9.64075093,8.53789936 C9.42769061,8.46104947 9.24601864,8.37171148 9.09573502,8.26988538 C8.9454514,8.16805928 8.83131194,8.04990258 8.75331664,7.91541528 C8.67532135,7.78092798 8.64012835,7.62530696 8.64773765,7.44855222 C8.65154229,7.23337254 8.714319,7.04220844 8.83606775,6.87505994 C8.95781651,6.70791144 9.14043964,6.57630601 9.38393715,6.48024365 C9.62743466,6.38418129 9.93180654,6.33615011 10.2970528,6.33615011 C10.8487269,6.33615011 11.2738963,6.45430681 11.5725612,6.69062021 C11.8712262,6.92693361 12.0395819,7.2564275 12.0776283,7.67910188 L14.7827335,7.67910188 C14.7751242,6.94518546 14.5867941,6.29964641 14.2177432,5.74248474 C13.8486923,5.18532306 13.3303089,4.75208182 12.6625931,4.44276103 C11.9948772,4.13344024 11.2082661,3.97877984 10.3027598,3.97877984 C9.41627666,3.97877984 8.62681208,4.13247961 7.93436604,4.43987916 C7.24191999,4.74727871 6.69975757,5.17571682 6.30787876,5.72519351 C5.91599996,6.2746702 5.72196288,6.91444551 5.72576753,7.64451943 C5.72196288,8.53982061 6.01111617,9.24972143 6.59322741,9.77422191 C7.17533864,10.2987224 7.97241252,10.6781687 8.98444905,10.9125609 L10.2057412,11.2007479 C10.6318619,11.3006528 10.9828407,11.4092032 11.2586777,11.5263993 C11.5345148,11.6435954 11.7390146,11.7819252 11.8721773,11.9413887 C12.00534,12.1008522 12.0738237,12.2920163 12.0776283,12.514881 C12.0738237,12.7531156 11.9996331,12.9644528 11.8550564,13.1488926 C11.7104798,13.3333323 11.5040776,13.4774258 11.2358498,13.5811732 C10.9676221,13.6849205 10.6432758,13.7367942 10.262811,13.7367942 C9.84810428,13.7367942 9.48380917,13.6714718 9.16992566,13.540827 C8.85604216,13.4101822 8.60969116,13.2180575 8.43087268,12.9644528 C8.25205419,12.7108482 8.151231,12.3938424 8.12840311,12.0134355 L5.42329797,12.0134355 C5.43471191,12.9356341 5.64206526,13.6983692 6.04535801,14.3016409 C6.44865076,14.9049125 7.01364108,15.3544843 7.74032896,15.6503564 C8.46701684,15.9462284 9.31925812,16.0941645 10.2970528,16.0941645 Z" id="Path" fill="#FFFFFF" fill-rule="nonzero" mask="url(#mask-2)"></path>
                </g>
            </g>
        </g>
    </g>
</svg>